<?xml version="1.0" encoding="UTF-8" standalone="no"?>
<!DOCTYPE svg PUBLIC "-//W3C//DTD SVG 1.1//EN" "http://www.w3.org/Graphics/SVG/1.1/DTD/svg11.dtd">
<svg width="100%" height="100%" viewBox="0 0 292 334" version="1.1" xmlns="http://www.w3.org/2000/svg" xmlns:xlink="http://www.w3.org/1999/xlink" xml:space="preserve" xmlns:serif="http://www.serif.com/" style="fill-rule:evenodd;clip-rule:evenodd;stroke-linecap:round;stroke-linejoin:round;stroke-miterlimit:1.5;">
    <rect id="Artboard1" x="0" y="0" width="291.528" height="333.333" style="fill:none;"/>
    <g id="Artboard11" serif:id="Artboard1">
        <rect x="25" y="25" width="241.528" height="283.333" style="fill:#ebebeb;fill-opacity:0;stroke:#8f8899;stroke-width:0.69px;"/>
        <rect x="57.53" y="64.986" width="170.49" height="200" style="fill:#ebebeb;fill-opacity:0;stroke:#8f8899;stroke-width:0.69px;stroke-dasharray:0.69,1.39,0,0,0,0;"/>
        <circle cx="80.211" cy="82.193" r="14.583" style="fill:#925a4f;stroke:#000;stroke-width:0.69px;"/>
        <circle cx="202.116" cy="248.18" r="14.583" style="fill:#ff9b7d;stroke:#000;stroke-width:0.69px;"/>
        <circle cx="203.227" cy="166.667" r="14.583" style="fill:#00c9a4;stroke:#000;stroke-width:0.69px;"/>
        <circle cx="140.83" cy="146.466" r="14.583" style="fill:#f9f871;stroke:#000;stroke-width:0.69px;"/>
        <circle cx="81.508" cy="185.531" r="14.583" style="fill:#00cae9;stroke:#000;stroke-width:0.69px;"/>
        <circle cx="173.505" cy="89.303" r="14.583" style="fill:#c76e96;stroke:#000;stroke-width:0.69px;"/>
        <circle cx="101.357" cy="239.843" r="14.583" style="fill:#a594c3;stroke:#000;stroke-width:0.69px;"/>
        <circle cx="249.703" cy="82.193" r="14.583" style="fill:#925a4f;fill-opacity:0.75;stroke:#030519;stroke-width:0.87px;stroke-dasharray:0,1.74,0,0,0,0;"/>
        <circle cx="101.248" cy="40.938" r="14.583" style="fill:#a594c3;fill-opacity:0.75;stroke:#030519;stroke-width:0.87px;stroke-dasharray:0,1.74,0,0,0,0;"/>
        <circle cx="246.802" cy="185.531" r="14.583" style="fill:#00cae9;fill-opacity:0.75;stroke:#030519;stroke-width:0.87px;stroke-dasharray:0,1.74,0,0,0,0;"/>
        <circle cx="35.374" cy="166.93" r="14.583" style="fill:#00c9a4;fill-opacity:0.75;stroke:#030519;stroke-width:0.87px;stroke-dasharray:0,1.74,0,0,0,0;"/>
        <circle cx="173.227" cy="289.5" r="14.583" style="fill:#c76e96;fill-opacity:0.75;stroke:#030519;stroke-width:0.87px;stroke-dasharray:0,1.74,0,0,0,0;"/>
        <circle cx="80.221" cy="282.066" r="14.583" style="fill:#925a4f;fill-opacity:0.75;stroke:#030519;stroke-width:0.87px;stroke-dasharray:0,1.74,0,0,0,0;"/>
        <circle cx="202.116" cy="49.019" r="14.583" style="fill:#ff9b7d;fill-opacity:0.75;stroke:#030519;stroke-width:0.87px;stroke-dasharray:0,1.74,0,0,0,0;"/>
        <circle cx="33.279" cy="248.18" r="14.583" style="fill:#ff9b7d;fill-opacity:0.75;stroke:#030519;stroke-width:0.87px;stroke-dasharray:0,1.74,0,0,0,0;"/>
        <g>
            <path d="M177.037,282.593l-0,1.892c-0.427,-0.251 -0.882,-0.443 -1.363,-0.575c-0.482,-0.132 -0.984,-0.198 -1.506,-0.198c-1.302,-0 -2.289,0.49 -2.96,1.47c-0.671,0.98 -1.007,2.422 -1.007,4.328c0.325,-0.678 0.776,-1.199 1.353,-1.562c0.576,-0.362 1.238,-0.544 1.984,-0.544c1.464,0 2.599,0.45 3.402,1.348c0.804,0.899 1.206,2.172 1.206,3.82c-0,1.641 -0.414,2.913 -1.241,3.815c-0.828,0.902 -1.991,1.353 -3.49,1.353c-1.763,-0 -3.055,-0.633 -3.875,-1.898c-0.821,-1.264 -1.231,-3.257 -1.231,-5.976c-0,-2.563 0.493,-4.518 1.48,-5.864c0.987,-1.347 2.416,-2.02 4.288,-2.02c0.502,0 1.003,0.053 1.505,0.158c0.502,0.105 0.987,0.256 1.455,0.453Zm-3.662,6.419c-0.875,-0 -1.563,0.315 -2.065,0.946c-0.502,0.63 -0.753,1.502 -0.753,2.614c-0,1.112 0.251,1.984 0.753,2.614c0.502,0.631 1.19,0.946 2.065,0.946c0.909,0 1.593,-0.3 2.055,-0.9c0.461,-0.6 0.691,-1.487 0.691,-2.66c0,-1.18 -0.23,-2.069 -0.691,-2.665c-0.462,-0.597 -1.146,-0.895 -2.055,-0.895Z" style="fill:#2b2b2b;fill-rule:nonzero;"/>
            <path d="M177.315,82.396l-0,1.892c-0.428,-0.251 -0.882,-0.443 -1.363,-0.575c-0.482,-0.132 -0.984,-0.199 -1.506,-0.199c-1.302,0 -2.289,0.49 -2.96,1.47c-0.672,0.98 -1.007,2.423 -1.007,4.329c0.325,-0.678 0.776,-1.199 1.353,-1.562c0.576,-0.362 1.237,-0.544 1.983,-0.544c1.465,0 2.599,0.449 3.403,1.348c0.804,0.899 1.205,2.172 1.205,3.82c0,1.641 -0.413,2.913 -1.241,3.814c-0.827,0.902 -1.99,1.353 -3.489,1.353c-1.763,0 -3.055,-0.632 -3.875,-1.897c-0.821,-1.265 -1.231,-3.257 -1.231,-5.976c-0,-2.564 0.493,-4.518 1.48,-5.865c0.986,-1.346 2.416,-2.019 4.287,-2.019c0.502,0 1.004,0.053 1.506,0.158c0.502,0.105 0.987,0.256 1.455,0.453Zm-3.662,6.418c-0.875,0 -1.564,0.316 -2.065,0.946c-0.502,0.631 -0.753,1.503 -0.753,2.615c-0,1.112 0.251,1.983 0.753,2.614c0.501,0.631 1.19,0.946 2.065,0.946c0.908,0 1.593,-0.3 2.054,-0.9c0.462,-0.6 0.692,-1.487 0.692,-2.66c0,-1.18 -0.23,-2.069 -0.692,-2.665c-0.461,-0.597 -1.146,-0.896 -2.054,-0.896Z" style="fill-rule:nonzero;"/>
            <path d="M246.178,88.419l3.194,-0l0,-11.475l-3.825,1.841l0,-1.973l3.805,-1.811l2.055,0l-0,13.418l3.153,-0l0,1.719l-8.382,-0l0,-1.719Z" style="fill:#2b2b2b;fill-rule:nonzero;"/>
            <path d="M203.739,247.997c0.997,0.265 1.76,0.734 2.288,1.409c0.529,0.675 0.794,1.518 0.794,2.528c-0,1.397 -0.47,2.494 -1.409,3.291c-0.939,0.797 -2.24,1.195 -3.901,1.195c-0.699,0 -1.411,-0.064 -2.136,-0.193c-0.726,-0.129 -1.438,-0.316 -2.137,-0.56l0,-2.044c0.692,0.359 1.374,0.627 2.045,0.803c0.671,0.177 1.339,0.265 2.004,0.265c1.126,-0 1.991,-0.255 2.594,-0.763c0.604,-0.509 0.905,-1.241 0.905,-2.197c0,-0.882 -0.301,-1.582 -0.905,-2.101c-0.603,-0.519 -1.421,-0.778 -2.451,-0.778l-1.567,-0l-0,-1.689l1.567,0c0.942,0 1.678,-0.207 2.207,-0.62c0.529,-0.414 0.793,-0.991 0.793,-1.73c0,-0.78 -0.245,-1.378 -0.737,-1.795c-0.492,-0.417 -1.192,-0.626 -2.101,-0.626c-0.603,0 -1.227,0.068 -1.871,0.204c-0.645,0.135 -1.32,0.339 -2.025,0.61l0,-1.892c0.821,-0.217 1.552,-0.38 2.192,-0.488c0.641,-0.109 1.209,-0.163 1.704,-0.163c1.479,-0 2.66,0.371 3.545,1.114c0.885,0.742 1.328,1.727 1.328,2.955c-0,0.834 -0.232,1.529 -0.697,2.085c-0.464,0.556 -1.141,0.95 -2.029,1.18Z" style="fill-rule:nonzero;"/>
            <path d="M136.251,139.501l9.562,-0l-0,0.874l-5.432,14.313l-2.147,0l5.29,-13.458l-7.273,-0l-0,-1.729Z" style="fill-rule:nonzero;"/>
            <path d="M34.902,247.997c0.997,0.265 1.76,0.734 2.289,1.409c0.529,0.675 0.793,1.518 0.793,2.528c0,1.397 -0.469,2.494 -1.409,3.291c-0.939,0.797 -2.239,1.195 -3.901,1.195c-0.698,0 -1.411,-0.064 -2.136,-0.193c-0.726,-0.129 -1.438,-0.316 -2.136,-0.56l-0,-2.044c0.691,0.359 1.373,0.627 2.044,0.803c0.672,0.177 1.34,0.265 2.004,0.265c1.126,-0 1.991,-0.255 2.594,-0.763c0.604,-0.509 0.906,-1.241 0.906,-2.197c-0,-0.882 -0.302,-1.582 -0.906,-2.101c-0.603,-0.519 -1.42,-0.778 -2.451,-0.778l-1.567,-0l0,-1.689l1.567,0c0.942,0 1.678,-0.207 2.207,-0.62c0.529,-0.414 0.794,-0.991 0.794,-1.73c-0,-0.78 -0.246,-1.378 -0.738,-1.795c-0.492,-0.417 -1.192,-0.626 -2.101,-0.626c-0.603,0 -1.227,0.068 -1.871,0.204c-0.645,0.135 -1.319,0.339 -2.025,0.61l0,-1.892c0.821,-0.217 1.552,-0.38 2.193,-0.488c0.64,-0.109 1.208,-0.163 1.703,-0.163c1.479,-0 2.661,0.371 3.546,1.114c0.885,0.742 1.327,1.727 1.327,2.955c0,0.834 -0.232,1.529 -0.697,2.085c-0.464,0.556 -1.141,0.95 -2.029,1.18Z" style="fill:#2b2b2b;fill-rule:nonzero;"/>
            <path d="M204.433,161.296l-4.792,8.026l4.792,-0l-0,-8.026Zm-0.336,-1.872l2.38,-0l0,9.898l2.025,-0l-0,1.668l-2.025,-0l0,3.621l-2.044,0l-0,-3.621l-6.439,-0l-0,-1.943l6.103,-9.623Z" style="fill-rule:nonzero;"/>
            <path d="M36.58,161.296l-4.792,8.026l4.792,-0l-0,-8.026Zm-0.336,-1.872l2.38,-0l0,9.898l2.025,-0l-0,1.668l-2.025,-0l0,3.621l-2.044,0l-0,-3.621l-6.44,-0l0,-1.943l6.104,-9.623Z" style="fill:#2b2b2b;fill-rule:nonzero;"/>
            <path d="M242.637,178.288l7.69,0l-0,1.729l-5.819,0l0,3.734c0.292,-0.109 0.585,-0.188 0.88,-0.239c0.295,-0.051 0.592,-0.077 0.89,-0.077c1.574,0 2.821,0.465 3.744,1.394c0.922,0.929 1.383,2.187 1.383,3.774c0,1.601 -0.483,2.862 -1.449,3.784c-0.967,0.923 -2.287,1.384 -3.963,1.384c-0.807,-0 -1.544,-0.055 -2.212,-0.163c-0.668,-0.109 -1.267,-0.271 -1.795,-0.488l-0,-2.086c0.623,0.339 1.251,0.592 1.881,0.758c0.631,0.166 1.275,0.249 1.933,0.249c1.133,0 2.006,-0.298 2.62,-0.895c0.613,-0.597 0.92,-1.444 0.92,-2.543c0,-1.085 -0.317,-1.929 -0.951,-2.533c-0.634,-0.603 -1.517,-0.905 -2.65,-0.905c-0.549,-0 -1.085,0.062 -1.607,0.188c-0.522,0.125 -1.021,0.314 -1.495,0.565l-0,-7.63Z" style="fill:#2b2b2b;fill-rule:nonzero;"/>
            <path d="M77.342,178.288l7.69,0l0,1.729l-5.818,0l-0,3.734c0.291,-0.109 0.585,-0.188 0.88,-0.239c0.295,-0.051 0.591,-0.077 0.89,-0.077c1.573,0 2.821,0.465 3.743,1.394c0.922,0.929 1.384,2.187 1.384,3.774c-0,1.601 -0.484,2.862 -1.45,3.784c-0.966,0.923 -2.287,1.384 -3.962,1.384c-0.807,-0 -1.545,-0.055 -2.213,-0.163c-0.668,-0.109 -1.266,-0.271 -1.795,-0.488l-0,-2.086c0.624,0.339 1.251,0.592 1.882,0.758c0.63,0.166 1.275,0.249 1.933,0.249c1.132,0 2.005,-0.298 2.619,-0.895c0.614,-0.597 0.921,-1.444 0.921,-2.543c-0,-1.085 -0.317,-1.929 -0.952,-2.533c-0.634,-0.603 -1.517,-0.905 -2.65,-0.905c-0.549,-0 -1.085,0.062 -1.607,0.188c-0.522,0.125 -1.02,0.314 -1.495,0.565l-0,-7.63Z" style="fill-rule:nonzero;"/>
            <path d="M98.88,47.153l6.978,0l-0,1.729l-9.227,0l0,-1.729c1.269,-1.336 2.377,-2.516 3.327,-3.54c0.949,-1.024 1.604,-1.746 1.963,-2.167c0.678,-0.827 1.136,-1.497 1.373,-2.009c0.238,-0.512 0.357,-1.036 0.357,-1.571c-0,-0.848 -0.25,-1.513 -0.748,-1.994c-0.499,-0.482 -1.182,-0.722 -2.05,-0.722c-0.617,-0 -1.265,0.111 -1.943,0.335c-0.678,0.224 -1.397,0.563 -2.156,1.018l-0,-2.076c0.698,-0.332 1.385,-0.583 2.059,-0.752c0.675,-0.17 1.342,-0.255 1.999,-0.255c1.486,0 2.681,0.395 3.586,1.185c0.906,0.79 1.358,1.826 1.358,3.108c0,0.651 -0.151,1.302 -0.452,1.953c-0.302,0.651 -0.792,1.37 -1.47,2.157c-0.38,0.441 -0.931,1.051 -1.653,1.831c-0.723,0.78 -1.823,1.946 -3.301,3.499Z" style="fill:#2b2b2b;fill-rule:nonzero;"/>
            <path d="M76.686,288.292l3.194,-0l0,-11.475l-3.825,1.842l0,-1.974l3.805,-1.811l2.055,0l-0,13.418l3.153,-0l0,1.719l-8.382,0l-0,-1.719Z" style="fill:#2b2b2b;fill-rule:nonzero;"/>
            <path d="M98.771,246.058l6.978,0l0,1.73l-9.226,-0l-0,-1.73c1.268,-1.336 2.377,-2.516 3.326,-3.54c0.95,-1.024 1.604,-1.746 1.964,-2.166c0.678,-0.828 1.136,-1.498 1.373,-2.01c0.237,-0.512 0.356,-1.035 0.356,-1.571c0,-0.848 -0.249,-1.513 -0.748,-1.994c-0.498,-0.482 -1.181,-0.722 -2.049,-0.722c-0.618,-0 -1.265,0.112 -1.943,0.335c-0.679,0.224 -1.397,0.563 -2.157,1.018l0,-2.076c0.699,-0.332 1.385,-0.583 2.06,-0.752c0.675,-0.17 1.341,-0.255 1.999,-0.255c1.485,0 2.68,0.395 3.586,1.186c0.905,0.79 1.358,1.825 1.358,3.107c-0,0.651 -0.151,1.302 -0.453,1.953c-0.302,0.651 -0.792,1.37 -1.47,2.157c-0.38,0.441 -0.931,1.051 -1.653,1.831c-0.722,0.78 -1.823,1.946 -3.301,3.499Z" style="fill-rule:nonzero;"/>
            <path d="M203.739,48.836c0.997,0.265 1.76,0.734 2.288,1.409c0.529,0.675 0.794,1.518 0.794,2.528c-0,1.397 -0.47,2.494 -1.409,3.291c-0.939,0.797 -2.24,1.195 -3.901,1.195c-0.699,0 -1.411,-0.064 -2.136,-0.193c-0.726,-0.129 -1.438,-0.316 -2.137,-0.56l0,-2.044c0.692,0.359 1.374,0.627 2.045,0.803c0.671,0.177 1.339,0.265 2.004,0.265c1.126,-0 1.991,-0.255 2.594,-0.763c0.604,-0.509 0.905,-1.241 0.905,-2.197c0,-0.882 -0.301,-1.582 -0.905,-2.101c-0.603,-0.519 -1.421,-0.778 -2.451,-0.778l-1.567,-0l-0,-1.689l1.567,0c0.942,0 1.678,-0.207 2.207,-0.62c0.529,-0.414 0.793,-0.991 0.793,-1.73c0,-0.78 -0.245,-1.378 -0.737,-1.795c-0.492,-0.417 -1.192,-0.626 -2.101,-0.626c-0.603,0 -1.227,0.068 -1.871,0.204c-0.645,0.135 -1.32,0.339 -2.025,0.61l0,-1.892c0.821,-0.217 1.552,-0.38 2.192,-0.488c0.641,-0.109 1.209,-0.163 1.704,-0.163c1.479,-0 2.66,0.371 3.545,1.114c0.885,0.742 1.328,1.727 1.328,2.955c-0,0.834 -0.232,1.529 -0.697,2.085c-0.464,0.556 -1.141,0.95 -2.029,1.18Z" style="fill:#2b2b2b;fill-rule:nonzero;"/>
            <path d="M76.686,88.33l3.194,-0l0,-11.475l-3.825,1.841l0,-1.973l3.805,-1.811l2.055,0l-0,13.418l3.153,-0l0,1.719l-8.382,0l-0,-1.719Z" style="fill-rule:nonzero;"/>
        </g>
    </g>
</svg>
